PathFileType	4	(X/Y/Z)	H:\MAC\Cortex8\Teaching\Biomec1_N_2\Trimmed_walk2.trc
DataRate	CameraRate	NumFrames	NumMarkers	Units	OrigDataRate	OrigDataStartFrame	OrigNumFrames
150.00	150.00	       6	28	mm	150.00	70	       184
Frame#	Time	R.ASIS			L.ASIS			R.PSIS			L.PSIS			L.Iliac.Crest			R.Iliac.Crest			R.GTR			R.Knee			R.HF			R.TT			R.Ankle			R.Heel			R.MT1			R.MT5			L.GTR			L.Knee			L.HF			L.TT			L.Ankle			L.Heel			L.MT1			L.MT5			R.Knee.Medial			R.Ankle.Medial			R.MT2			L.Knee.Medial			L.Ankle.Medial			L.MT2			V_Mid_ASIS			V_Mid_PSIS			V_Pelvis_Origin			V_R.Hip_JC			V_R.Knee_JC_Static			V_R.TT			V_R.Ankle_JC_Static			V_L.Hip_JC			V_Mid_Hip			V_R.MT2_Static			V_R.Knee.Medial			V_R.Ankle.Medial			V_R.TT			V_L.Knee_JC_Static			V_L.TT			V_L.Ankle_JC_Static			V_L.MT2_Static			V_R.Knee_JC			V_R.Ankle_JC			V_L.Knee_JC			V_L.Ankle_JC			V_R.TT_KJC_Static			V_L.TT_KJC_Static			V_R.TT_KJC			V_L.TT_KJC			V_R.MT2			V_L.MT2			
		X1	Y1	Z1	X2	Y2	Z2	X3	Y3	Z3	X4	Y4	Z4	X5	Y5	Z5	X6	Y6	Z6	X7	Y7	Z7	X8	Y8	Z8	X9	Y9	Z9	X10	Y10	Z10	X11	Y11	Z11	X12	Y12	Z12	X13	Y13	Z13	X14	Y14	Z14	X15	Y15	Z15	X16	Y16	Z16	X17	Y17	Z17	X18	Y18	Z18	X19	Y19	Z19	X20	Y20	Z20	X21	Y21	Z21	X22	Y22	Z22	X23	Y23	Z23	X24	Y24	Z24	X25	Y25	Z25	X26	Y26	Z26	X27	Y27	Z27	X28	Y28	Z28	

70	0.460	1007.93622	966.41388	-355.61420	985.07654	962.42096	-606.96558	798.17841	972.75372	-400.97910	784.95325	976.53595	-477.24695	891.42133	1027.42566	-636.28851	935.34668	1011.40967	-303.53595	956.71997	882.88892	-272.61655	1063.17615	480.91312	-308.05389	1105.53088	431.43781	-304.67865	1172.98865	453.94272	-346.16754	1276.51917	103.58490	-326.18405	1250.48547	50.75032	-388.41000	1430.96094	176.52730	-340.25482	1398.34326	138.93855	-264.00531	875.87659	873.15863	-675.84229	758.12701	497.37845	-621.94391	751.50287	432.13013	-615.20728	807.16077	408.82004	-562.44104	620.01208	94.19186	-546.01294	551.54761	68.98053	-488.52878	774.50244	50.83545	-486.01669	750.26709	46.24958	-574.07843	1105.57410	477.68402	-441.86343	1312.82117	146.27817	-400.49097	1413.92261	173.70387	-305.49664	775.36823	483.33002	-479.86404	660.80048	108.98355	-459.53378	772.68500	55.03554	-522.64008																																																																																		
71	0.467	1016.76221	965.00012	-355.63754	992.83472	961.06586	-606.77740	806.74261	971.51685	-399.55975	793.15588	975.27869	-475.92508	899.00256	1026.14038	-635.72333	944.60284	1009.92389	-302.98166	965.81085	881.67682	-272.06808	1071.64685	479.34506	-308.47751	1114.22278	430.15866	-305.07962	1181.70764	453.23404	-346.74680	1285.39771	102.45296	-327.31772	1259.12756	49.54853	-389.35638	1439.85376	175.47052	-342.19397	1407.45618	137.84407	-265.76852	882.99933	872.09210	-675.41150	763.32086	497.14319	-621.66345	756.02271	432.01981	-614.98932	811.17395	408.38293	-562.68658	620.61682	95.16121	-546.22974	551.95563	70.78477	-488.84045	774.76459	50.77598	-486.10870	750.36353	46.22485	-574.18323	1113.68347	476.67255	-442.31866	1321.27832	145.11902	-401.71365	1422.87183	172.60440	-307.30771	780.91132	482.70905	-479.95483	661.81445	109.77719	-459.90942	772.72180	54.99612	-522.70459																																																																																		
72	0.473	1025.39197	963.65826	-355.51810	1000.51459	959.70367	-606.58954	815.33179	970.28180	-398.24017	801.55713	973.95630	-474.62109	906.68109	1024.83948	-635.05048	954.20959	1008.69135	-302.10745	974.95618	880.73853	-271.33719	1080.87305	478.25156	-308.74457	1123.34534	429.20587	-305.39227	1190.82288	452.41452	-347.29028	1293.07129	100.75124	-328.38962	1266.22925	47.93334	-390.34979	1447.70349	173.09651	-344.45313	1416.47681	135.24506	-267.78156	890.28381	871.02838	-674.92566	768.20209	497.14993	-621.03668	760.63446	431.90649	-614.76062	815.64288	407.59348	-562.66907	621.01550	96.27187	-547.01154	552.58246	72.66113	-489.09897	775.04883	50.72894	-486.20139	750.45563	46.20269	-574.29089	1122.31897	475.87076	-442.61649	1328.78076	143.15939	-403.11411	1430.92932	170.52266	-309.43924	786.29755	482.17459	-479.81723	662.75739	110.73154	-460.22195	772.76215	54.94309	-522.75574																																																																																		
73	0.480	1034.13318	962.52051	-355.35849	1008.44470	958.38300	-606.34961	823.93329	968.97321	-397.01959	810.03046	972.58771	-473.33044	914.46210	1023.50891	-634.35925	962.74792	1007.34247	-301.89041	985.36780	880.46844	-270.45358	1090.81555	477.61209	-308.76736	1132.83606	428.50916	-305.72015	1200.26245	451.45270	-348.00528	1299.57678	98.65939	-329.67343	1271.87231	45.85718	-391.24847	1455.20508	170.17355	-346.96820	1423.21863	132.63586	-269.53778	897.61066	869.96008	-674.46497	773.64447	496.94641	-620.56287	765.49646	431.78625	-614.42810	820.17242	406.75668	-562.50372	621.77661	97.56474	-547.31207	553.27332	74.60487	-489.50674	775.35211	50.67282	-486.32678	750.71216	46.29018	-574.39972	1131.41528	475.29892	-442.89624	1335.20557	140.48329	-404.67413	1438.14685	167.07185	-311.74161	792.12225	481.48022	-479.53036	663.53522	111.81984	-460.52744	772.80182	54.90541	-522.82196																																																																																		
74	0.487	1043.34363	961.57190	-355.07281	1016.45972	957.08600	-606.00842	832.67963	967.73761	-395.91516	818.63940	971.15143	-472.16049	922.38574	1022.19873	-633.61316	971.73322	1006.08411	-301.25613	995.20441	880.12244	-269.40091	1101.42529	477.45654	-308.59955	1142.91431	427.84705	-305.91290	1209.93323	450.17020	-348.78455	1305.10278	96.07127	-330.96793	1276.36731	43.42431	-392.23694	1461.35864	165.67130	-349.59705	1429.52185	128.91373	-272.36591	905.09442	868.86987	-673.96674	779.23517	496.77405	-620.08374	770.41174	431.72021	-614.15417	824.96606	405.91833	-562.34302	622.61682	99.00320	-547.64734	553.84778	76.95648	-490.02921	775.68555	50.65749	-486.60388	750.95251	46.43416	-574.54346	1141.04944	474.94501	-443.15067	1340.75842	137.22009	-406.37903	1444.64551	162.64665	-314.20700	797.83820	480.89624	-479.21335	664.80420	112.93038	-461.01810	772.82672	54.88267	-522.87744																																																																																		
75	0.493	1052.42249	960.70422	-354.61017	1024.74487	955.74451	-605.46936	841.50256	966.42401	-394.82684	827.29352	969.71606	-471.04590	930.51062	1020.86505	-632.84760	980.54877	1004.92169	-300.64850	1004.99579	879.96661	-268.31448	1112.68958	477.62811	-308.24927	1153.24487	427.26865	-306.04446	1219.61719	448.63297	-349.67725	1309.83765	93.09673	-332.34836	1279.77502	40.66183	-393.27579	1466.83899	160.34549	-352.44092	1436.04187	123.88158	-274.87634	912.75922	867.81012	-673.43927	785.00104	496.57742	-619.48755	775.61603	431.61377	-613.80182	829.79706	405.05646	-562.12030	623.68665	100.60603	-547.79712	554.36188	79.60244	-490.34586	776.13708	50.51988	-487.02365	750.77844	46.16997	-574.71515	1151.00378	474.66888	-443.32745	1345.38538	133.44759	-408.16812	1450.35498	158.10066	-317.01746	803.87360	480.25153	-478.79642	665.95667	114.04137	-461.37396	772.64203	54.73716	-523.05261																																																																																		
